<?xml version="1.0" encoding="utf-8"?>
<!-- Generator: Adobe Illustrator 21.0.0, SVG Export Plug-In . SVG Version: 6.00 Build 0)  -->
<svg version="1.1" id="_x32_" xmlns="http://www.w3.org/2000/svg" xmlns:xlink="http://www.w3.org/1999/xlink" x="0px" y="0px"
	 viewBox="0 0 512 512" style="enable-background:new 0 0 512 512;" xml:space="preserve">
<style type="text/css">
	.st0{fill:#4EA2F2;}
</style>
<g>
	<path class="st0" d="M306.5,164.9c0,0,1.1-1.8,1.1-19.4c0-38.6-33.6-60.3-66.3-60.3c-5.3,0-10.2,0.7-14.7,1.7c-3.1,0-52,0-83.9,0
		C95,87,35.2,123.2,65,195.6c23.4-21.3,46.5-29.9,70.3-29.9c11.9,0,34.9,0,54.8,0c-0.5-13.1,0.5-42.6,18.6-55.1
		c34.6-24,68.8,10.9,68.8,25.4c0,14.5,0,36.2,0,65.2s-16.3,47.1-38,47.1c-15.9,0-33.8-4-45.8-13.9c7.7,44.6,27.7,72.3,52.4,89
		c2,1.4,4.1,2.5,6.1,3.7l4.4,28.2c0.1,4.1,2.4,7.5,5.7,9.4l0,6.5l-15.1,17.1l-15.2-2.5c-2.6-0.4-5,1.3-5.4,3.9
		c-0.4,2.6,1.3,5,3.9,5.4l1,0.2l-15.6,6.2c-2.4,1-3.6,3.7-2.6,6.1c1,2.4,3.7,3.6,6.1,2.6l27.8-11.1l8.1,12.2
		c1.4,2.2,4.4,2.8,6.5,1.3c2.2-1.4,2.8-4.4,1.3-6.5l-8.2-12.4l16.8-19l0-9.6c3.9-1.7,6.7-5.6,6.6-10.1l0.4-15.2
		c5.9,2.1,11.6,3.7,17.3,5l3.7,20.1c0.9,4.8,4.5,8.3,8.9,9.4l0.3,2.5l-9.1,20.9l-14.1-0.3c-2.6,0-4.7,2-4.8,4.6c0,2.6,2,4.8,4.6,4.8
		v0l3.8,0.1l-14.8,11.4c-2.1,1.6-2.4,4.5-0.8,6.6c1.6,2.1,4.5,2.4,6.6,0.8v0l22.4-17.3l14.3,11.8c2,1.7,5,1.4,6.6-0.6
		c1.7-2,1.4-5-0.6-6.6l-14.5-11.9l10-22.8l-0.6-5.5c4-2.5,6.2-7.3,5.3-12.2l-0.3-12c30.7,1.8,53.3-5.1,53.3-5.1l43.5,56.1l35.2-28.3
		L306.5,164.9z"/>
	<path class="st0" d="M250.6,135.9c0,6.1-5,11.1-11.1,11.1c-6.1,0-11.1-5-11.1-11.1c0-6.1,5-11.1,11.1-11.1
		C245.6,124.8,250.6,129.8,250.6,135.9z"/>
</g>
</svg>
