<!--?xml version="1.0" encoding="utf-8"?-->
<!-- Generator: Adobe Illustrator 18.1.1, SVG Export Plug-In . SVG Version: 6.00 Build 0)  -->

<svg version="1.1" id="_x32_" xmlns="http://www.w3.org/2000/svg" xmlns:xlink="http://www.w3.org/1999/xlink" x="0px" y="0px" viewBox="0 0 512 512" style="width: 256px; height: 256px; opacity: 1;" xml:space="preserve">
<style type="text/css">
	.st0{fill:#4B4B4B;}
</style>
<g>
	<path class="st0" d="M377.265,91.777l-94.997,102.57c9.347,1.454,18.56,3.665,27.544,6.669l0.46-0.49l74.872-82.393
		c4.718-5.2,8.353-11.172,10.8-17.537c2.441-6.357,3.709-13.1,3.709-19.917c0-6.461-1.157-12.997-3.464-19.258l-0.246-0.697
		l-0.415-1.12c-0.586,1.862-1.254,3.746-2.032,5.66c-3.368,8.197-8.591,16.92-16.112,26.364L377.265,91.777z" style="fill: rgb(78, 162, 242);"></path>
	<path class="st0" d="M142.68,84.938l98.595,106.443l-1.862,1.721c5.482-0.534,11.024-0.816,16.587-0.816
		c5.564,0,11.105,0.289,16.587,0.816l-1.862-1.721L369.32,84.938c6.958-8.776,11.594-16.617,14.48-23.656
		c2.894-7.085,4.036-13.338,4.036-19.117c0-1.365-0.09-2.693-0.208-4.02l-0.63-1.7c-4.021-10.941-11.282-20.088-20.399-26.416
		C357.473,3.664,346.39,0,334.766,0H177.204c-11.639,0-22.706,3.664-31.831,10.029c-9.117,6.328-16.387,15.474-20.4,26.416
		l-0.601,1.603c-0.134,1.358-0.223,2.723-0.223,4.117c0.007,5.778,1.157,12.032,4.05,19.117
		C131.086,68.321,135.722,76.162,142.68,84.938z M170.64,49.545l10.897,12.308h148.926l10.868-12.308l12.114,10.898L256,168.273
		l-97.489-107.83L170.64,49.545z" style="fill: rgb(78, 162, 242);"></path>
	<path class="st0" d="M126.82,118.134l75.05,82.571l0.305,0.319c8.99-3.011,18.196-5.222,27.558-6.676L134.735,91.792l-0.118-0.164
		c-7.522-9.444-12.744-18.167-16.112-26.364c-0.794-1.936-1.461-3.828-2.047-5.712l-0.431,1.172l-0.245,0.697
		c-2.307,6.261-3.434,12.796-3.434,19.258c0,6.817,1.224,13.56,3.679,19.917C118.475,106.962,122.11,112.934,126.82,118.134z" style="fill: rgb(78, 162, 242);"></path>
	<path class="st0" d="M362.264,255.488c-14.718-14.703-32.499-26.372-52.275-33.998c-16.772-6.454-34.984-9.985-53.989-9.985
		c-19.146,0-37.528,3.591-54.405,10.171c-19.644,7.61-37.254,19.205-51.86,33.812c-27.143,27.158-43.982,64.82-43.982,106.264
		c0,41.438,16.839,79.078,43.982,106.22C176.893,495.161,214.554,512,256,512c41.445,0,79.107-16.839,106.264-44.027
		c27.144-27.142,43.983-64.782,43.983-106.22C406.247,320.308,389.408,282.646,362.264,255.488z M317.66,267.076
		c12.329,8.026,23.085,18.441,31.549,30.763l-13.16,9.027c-7.248-10.571-16.498-19.524-27.098-26.431L317.66,267.076z
		 M233.004,251.134c7.745-1.617,15.489-2.388,23.108-2.388c7.003,0,13.924,0.652,20.667,1.914l-2.945,15.682
		c-5.778-1.083-11.712-1.654-17.722-1.654c-6.535,0-13.19,0.668-19.858,2.054l-0.26,0.06l-3.278-15.6L233.004,251.134z
		 M145.426,384.942l-0.037-0.208c-1.61-7.744-2.389-15.482-2.389-23.108c0-7.039,0.668-13.983,1.944-20.764l15.674,2.953
		c-1.106,5.808-1.662,11.772-1.662,17.811c0,6.542,0.66,13.189,2.047,19.859l0.037,0.178L145.426,384.942z M192.174,268.485
		l9.02,13.16c-10.578,7.248-19.531,16.483-26.446,27.069l-13.352-8.723C169.422,287.676,179.845,276.926,192.174,268.485z
		 M194.162,456.29c-12.292-8.041-23.041-18.471-31.468-30.815l13.168-8.998c7.225,10.586,16.453,19.554,27.032,26.468
		L194.162,456.29z M278.996,472.343c-7.744,1.625-15.489,2.389-23.108,2.389c-7.077,0-14.057-0.668-20.86-1.952l2.968-15.667
		c5.838,1.105,11.816,1.676,17.892,1.676c6.536,0,13.19-0.668,19.859-2.055l0.089-0.014l3.256,15.615L278.996,472.343z M256,389.556
		l-33.804,17.774l6.454-37.647l-27.343-26.653l37.788-5.49L256,303.29l16.906,34.25l37.788,5.49l-27.343,26.653l6.454,37.647
		L256,389.556z M319.663,455.118l-8.998-13.189c10.585-7.21,19.576-16.432,26.498-27.01l13.33,8.732
		C342.444,435.957,331.999,446.691,319.663,455.118z M351.352,379.831c1.113-5.861,1.7-11.877,1.7-17.982
		c0-6.535-0.668-13.182-2.055-19.858l-0.067-0.342l15.6-3.3l0.081,0.392c1.61,7.745,2.389,15.49,2.389,23.108
		c0,7.122-0.675,14.132-1.981,20.964L351.352,379.831z" style="fill: rgb(78, 162, 242);"></path>
</g>
</svg>
