<?xml version="1.0" encoding="utf-8"?>
<!-- Generator: Adobe Illustrator 21.0.0, SVG Export Plug-In . SVG Version: 6.00 Build 0)  -->
<svg version="1.1" id="_x32_" xmlns="http://www.w3.org/2000/svg" xmlns:xlink="http://www.w3.org/1999/xlink" x="0px" y="0px"
	 viewBox="0 0 512 512" style="enable-background:new 0 0 512 512;" xml:space="preserve">
<style type="text/css">
	.st0{fill:#C6001D;}
</style>
<path class="st0" d="M285.7,359.5c0,0,0.6,2.1,13.4,14.9c28.2,28.2,68.7,19.6,92.6-4.3c3.9-3.9,7-8,9.5-12.1
	c2.3-2.3,38-38,61.3-61.3c34.8-34.8,52.1-105.1-22.7-136.2c-1.6,32.7-12.1,55.9-29.5,73.3c-8.7,8.7-25.5,25.5-40.1,40.1
	c9.9,9.2,30.8,31.5,26.7,53.9c-7.8,42.9-58.3,42.4-68.9,31.8c-10.6-10.6-26.5-26.5-47.7-47.7c-21.2-21.2-22.5-46.3-6.6-62.2
	c11.7-11.7,27.6-21.8,43.6-23.3c-38.3-27-73.2-32.6-103.4-26.7c-2.5,0.5-4.8,1.2-7.2,1.7L183,184c-3-2.9-7.2-3.8-11-2.7l-4.8-4.8
	l-1.5-23.6l12.9-9.3c2.2-1.6,2.7-4.6,1.1-6.8c-1.6-2.2-4.6-2.7-6.8-1.1l-0.8,0.6l6.8-15.9c1.1-2.5-0.1-5.3-2.6-6.4
	c-2.5-1.1-5.3,0.1-6.4,2.6L157.8,145l-14.8-3c-2.6-0.5-5.2,1.2-5.7,3.8c-0.5,2.6,1.2,5.2,3.8,5.7l15.1,3.1l1.6,26.2l7,7
	c-1.7,4.1-0.8,9,2.6,12.3l10.8,11.4c-5.8,2.8-11.2,5.8-16.3,9l-17.4-12c-4.1-2.8-9.3-2.8-13.4-0.4l-2.1-1.7l-8.6-22l10.5-10.1
	c1.9-1.9,2-5,0.1-6.9c-1.9-1.9-5-2-6.9-0.1l0,0l-2.8,2.8l2.4-19.2c0.3-2.7-1.5-5.1-4.2-5.4c-2.7-0.3-5.1,1.5-5.4,4.2l0,0l-3.7,29
	l-19.1,1.8c-2.7,0.3-4.6,2.6-4.4,5.3c0.3,2.7,2.6,4.6,5.3,4.4l19.3-1.8l9.4,24l4.5,3.6c-1.1,4.8,0.8,9.9,5,12.8l9,8.5
	c-23.8,21.2-35.3,42.7-35.3,42.7l-72.8-9.3l-5.1,46.4L285.7,359.5z"/>
<g>
	
		<rect x="332.9" y="328.2" transform="matrix(0.7071 -0.7071 0.7071 0.7071 -130.3223 348.8047)" class="st0" width="45.9" height="7.1"/>
	
		<rect x="332.9" y="328.2" transform="matrix(0.7071 0.7071 -0.7071 0.7071 338.7939 -154.4905)" class="st0" width="45.9" height="7.1"/>
</g>
</svg>
