<?xml version="1.0" encoding="utf-8"?>
<!-- Generator: Adobe Illustrator 21.0.0, SVG Export Plug-In . SVG Version: 6.00 Build 0)  -->
<svg version="1.1" id="_x32_" xmlns="http://www.w3.org/2000/svg" xmlns:xlink="http://www.w3.org/1999/xlink" x="0px" y="0px"
	 viewBox="0 0 512 512" style="enable-background:new 0 0 512 512;" xml:space="preserve">
<style type="text/css">
	.st0{fill:#EDCB00;}
</style>
<g>
	<path class="st0" d="M320.9,138.8c0,0,1.4-2.3,1.4-24.9c0-49.7-43.2-77.6-85.2-77.6c-6.9,0-13.1,0.8-19,2.2c-4,0-66.9,0-107.9,0
		c-61.2,0-138.2,46.7-99.9,139.8c30.1-27.4,59.9-38.5,90.5-38.5c15.3,0,44.8,0,70.5,0c-0.7-16.8,0.6-54.8,23.9-70.9
		c44.6-30.8,88.5,14,88.5,32.6c0,18.6,0,46.6,0,83.9s-21,60.6-48.9,60.6c-20.5,0-43.5-5.1-58.9-17.9c9.9,57.4,35.7,93.1,67.4,114.5
		c2.6,1.8,5.3,3.2,7.9,4.8l5.7,36.2c0.1,5.2,3,9.7,7.3,12l0,8.4l-19.4,22l-19.5-3.2c-3.3-0.5-6.4,1.7-6.9,5c-0.5,3.3,1.7,6.4,5,7
		l1.3,0.2l-20,8c-3.1,1.2-4.6,4.8-3.4,7.9c1.2,3.1,4.8,4.6,7.9,3.4l35.7-14.3l10.4,15.7c1.8,2.8,5.6,3.6,8.4,1.7
		c2.8-1.8,3.6-5.6,1.7-8.4l-10.6-16l21.6-24.5l0-12.3c5.1-2.2,8.6-7.2,8.5-13.1l0.5-19.5c7.5,2.7,15,4.8,22.3,6.4l4.7,25.9
		c1.1,6.1,5.7,10.7,11.4,12.1l0.4,3.3l-11.8,26.9l-18.1-0.3c-3.3-0.1-6.1,2.6-6.2,5.9c-0.1,3.4,2.6,6.1,6,6.2v0l4.9,0.1l-19,14.7
		c-2.6,2-3.1,5.9-1.1,8.5c2,2.6,5.9,3.1,8.5,1.1v0l28.8-22.3l18.4,15.2c2.6,2.1,6.4,1.8,8.5-0.8c2.1-2.6,1.8-6.4-0.8-8.5l-18.6-15.3
		l12.8-29.3l-0.8-7.1c5.1-3.3,8-9.4,6.9-15.7l-0.4-15.4c39.6,2.3,68.6-6.5,68.6-6.5l55.9,72.2l45.3-36.4L320.9,138.8z"/>
	<path class="st0" d="M249,101.5c0,7.9-6.4,14.3-14.3,14.3c-7.9,0-14.3-6.4-14.3-14.3c0-7.9,6.4-14.3,14.3-14.3
		C242.6,87.2,249,93.6,249,101.5z"/>
</g>
</svg>
