<?xml version="1.0" encoding="utf-8"?>
<!-- Generator: Adobe Illustrator 21.0.0, SVG Export Plug-In . SVG Version: 6.00 Build 0)  -->
<svg version="1.1" id="レイヤー_1" xmlns="http://www.w3.org/2000/svg" xmlns:xlink="http://www.w3.org/1999/xlink" x="0px"
	 y="0px" viewBox="0 0 1500 500" style="enable-background:new 0 0 1500 500;" xml:space="preserve">
<style type="text/css">
	.st0{fill:#4EA2F2;}
	.st1{fill:#FFFFFF;}
</style>
<rect class="st0" width="1500" height="500"/>
<g>
	<g>
		<path class="st1" d="M421.8,150.2c0,0,1.2-2,1.2-21.3c0-42.4-36.9-66.3-72.8-66.3c-5.9,0-16.2,2-16.2,2h-92.2
			c0,0-118.1,39.7-85.3,119.3c25.7-23.4,51.1-32.9,77.3-33h60.2c-0.6-14.3,0.5-46.7,20.4-60.5c38.1-26.3,75.6,11.9,75.8,27.9V190
			c-0.2,31.8-18.1,51.7-42,51.7c-17.5,0-37.1-4.4-50.3-15.3c8.5,49.1,30.5,79.5,57.6,97.8c2.2,1.5,4.5,2.7,6.7,4.1l4.9,31
			c0.1,4.5,6.8,10.3,6.8,10.3v7.2l-17.2,18.8l-16.7-2.7c-2.8-0.5-5.5,1.5-5.9,4.3c-0.5,2.8,1.5,5.5,4.3,5.9l1.1,0.2l-17.1,6.8
			c-2.7,1.1-4,4.1-2.9,6.7c1.1,2.6,4.1,3.9,6.7,2.9l30.5-12.2l8.9,13.4c1.6,2.4,4.8,3,7.2,1.5c2.4-1.6,3-4.8,1.5-7.2l-9-13.6
			l18.1-20.9l0-10.7c4.4-1.9,7.4-6.2,7.4-11.3l0.5-16.9c6.5,2.3,13,4.1,19.3,5.6l4.1,22.4c1,5.3,5,9.3,9.9,10.5l0.3,2.8l-10.2,23.3
			l-15.7-0.3c-2.9-0.1-5.3,2.3-5.3,5.1c0,2.9,2.3,5.3,5.2,5.3v0h4.3l-16.2,12.1c-2.3,1.7-2.7,5-0.9,7.3c1.7,2.3,5,2.7,6.8,0.9v0
			l25-19l15.7,13c2.2,1.8,5.5,1.5,7.3-0.7c1.8-2.2,1.5-5.5-0.7-7.3l-15.9-13.1l11-25.1l-0.7-6.1c4.4-2.8,6.8-8,5.9-13.4L440,352
			c33.8,2,58.6-5.6,58.6-5.6l47.8,61.7l38.7-31.1L421.8,150.2z"/>
		<path class="st1" d="M360.3,118.3c0,6.7-5.5,12.2-12.2,12.2c-6.7,0-12.2-5.5-12.2-12.2c0-6.7,5.5-12.2,12.2-12.2
			C354.9,106.1,360.3,111.6,360.3,118.3z"/>
	</g>
</g>
<g>
	<path class="st1" d="M613.1,138.3v13.1h-22.3V229h-14.5v-90.7H613.1z"/>
	<path class="st1" d="M712,182.2l-9.1,0.7v48.5h-15.2v-47.5l-5.2,0.4l-6,42.8l-15.1-2.1l1.8-12.8l-6.4,7.6l-7.4-6.3v17.8h-14.6
		v-15.3l-8.4,9.7l-10.4-9.1l14.7-16.9l-11.1,0.7l-0.9-12.3l16.1-1.2v-4.6l-16.1,1.2l-0.9-12.4l10.1-0.7l-3.5-7.7l5.9-2.7l-9.4,0.7
		l-0.9-12.4l14.3-1l-1.5-5.5l14.7-3.9l2.3,8.3l14.8-1.1l0.9,12.4l-11.6,0.8l7.1,2.8l-2.8,7.2l6.7-0.4l0.9,12.3l-16.3,1.2v4.6l13.7-1
		l0.9,12.4l-14.6,1v7.4l4.6-5.6l9.8,8.2l7.7-55.6l31.9-14.8l6.5,13.7l-24.4,11.4l-0.9,6.3l26.4-1.9L712,182.2z M637.4,159.5l3.5,7.5
		l-6.3,2.9l8.9-0.6l4.3-10.6L637.4,159.5z"/>
	<path class="st1" d="M794.8,192l7.3,15.7l-45.7,21.4l-23.1-10.8v-77.5h18v66.8l5.1,2.4L794.8,192z"/>
	<path class="st1" d="M866.1,197.2L846,224.8l-15.5-3.4l-12.8-65.9l17.1-3.2l9.5,49l9.5-13L866.1,197.2z M869.5,159.1l15.7-7.4
		l22.5,48.4l-15.7,7.4L869.5,159.1z"/>
	<path class="st1" d="M912,231.4v-13.1h22.3v-77.5h14.5v90.7H912z"/>
	<path class="st1" d="M1053.5,212.4l37.4-1.3l0.5,15.2l-50.3,1.8l-7.6-28.5l24-11.1l-0.9-3.4l-19.6,3.4l-5.6,9.7l-13.7-7.9
		l11.3-19.6l-12.9,2.1l-2.5-15l23.7-3.7l9.9-17.2l13.8,7.9l-3.5,6l24.6-3.9l2.4,15.1l-35.3,5.6l-4,6.9l23.2-4l3.1,11.9l22-10.1
		l6.4,13.8l-24.3,11.2l2.1,7.7l-14.7,3.9l-1.5-5.4l-9.2,4.3L1053.5,212.4z"/>
</g>
<g>
	<path class="st1" d="M877.3,336.7v-7.2h14.5V350l-32.5,1.2l-7.8-7.6v-17.6l-13.4,0.7l-13.7,25.9l-12.8-6.9l9.7-18.1l-10.2,0.5
		l-0.7-13.1l16.5-0.8l5.1-9.5l-5,0.3l-0.3-4.4l-12.7,12.7l-9.8-9.8l12.6-12.6l-7-5.2l7.3-9.7l-4,0.3l-1-13.1l37.4-2.5l3.4,7.5
		l3.6-4.4l7,5.7l9.7-9.7l9.3,9.2l-8.7,8.7l3.6,3l10.7-9l8.4,10.1l-8.7,7.4l10.6,8.5l-8.7,10.8l-15.9-12.9l0.4,6.2l-7.4,0.6v9.8
		l22.4-1.2l0.7,13.1l-23.1,1.2V337L877.3,336.7z M818.5,275.7l7.4,5.6l6.6-6.6L818.5,275.7z M850.4,276.4L835.8,291l29.9-2.1
		L850.4,276.4z M842.9,313.1l8.5-0.5v-9.5l-10.4,0.7l5.3,2.8L842.9,313.1z"/>
	<path class="st1" d="M976.5,325.4h15.3v24.8l-35.2,1.2l-7.5-7.3v-21.7l-10.5,0.7l6.1,7.3l-27.2,22.7l-9.3-11.1l21.8-18.2h-13.2
		v-61.5h16.6v17.5l27-2l0.8,10.4l-27.8,2v5.7l27.2-2l0.8,10.4l-28,2v5.5l31-2.2v-36.9l-27.1,1.9l-0.8-11.7l35.7-2.5l8.9,8.3v52.6
		h-15.8v15.9l11.5-0.4V325.4z"/>
	<path class="st1" d="M1078.8,313l7.3,15.7l-45.7,21.4l-23.1-10.8v-77.5h18v66.8l5.1,2.4L1078.8,313z"/>
	<path class="st1" d="M1187.7,325.5l-5.2,14.3l-27.1-9.8v16.6h-44.7L1103,335l14.7-33l20.4,7.4v-47.6h17.2v19l24.5-3.4l2.3,15.8
		l-26.8,3.7v17L1187.7,325.5z M1122.1,331.4h16.1v-5.9l-11.6-4.2L1122.1,331.4z"/>
	<path class="st1" d="M1268,279.3l11.7,32.1l-41.9,41.9l-12.3-12.2l34.2-34.2l-3.2-8.9l-48.1,8.5l-2.8-16.4l40.2-7.1l-21.2-9.9
		l7.4-15.7l27.3,12.7l-5.4,11.4L1268,279.3z"/>
	<path class="st1" d="M1331.7,325.1h18v18h-18V325.1z M1332.4,265.9h16.7v49.3h-16.7V265.9z"/>
</g>
</svg>
